HIERARCHY
ROOT Hips
{
	OFFSET 0.000000 0.000000 0.000000 
	CHANNELS 6 Xposition Yposition Zposition Zrotation Yrotation Xrotation
	JOINT LeftUpLeg
	{
		OFFSET 1.363060 -1.794630 0.839290 
		CHANNELS 3 Zrotation Yrotation Xrotation
		JOINT LeftLeg
		{
			OFFSET 2.448110 -6.726130 0.000000 
			CHANNELS 3 Zrotation Yrotation Xrotation
			JOINT LeftFoot
			{
				OFFSET 2.562200 -7.039590 0.000000 
				CHANNELS 3 Zrotation Yrotation Xrotation
				JOINT LeftToeBase
				{
					OFFSET 0.157640 -0.433110 2.322550 
					CHANNELS 3 Zrotation Yrotation Xrotation
					End Site
					{
						OFFSET 0.000000 0.000000 0.000000 
					}
				}
			}
		}
	}
	JOINT RightUpLeg
	{
		OFFSET -1.305520 -1.794630 0.839290 
		CHANNELS 3 Zrotation Yrotation Xrotation
		JOINT RightLeg
		{
			OFFSET -2.542530 -6.985550 0.000000 
			CHANNELS 3 Zrotation Yrotation Xrotation
			JOINT RightFoot
			{
				OFFSET -2.568260 -7.056230 0.000000 
				CHANNELS 3 Zrotation Yrotation Xrotation
				JOINT RightToeBase
				{
					OFFSET -0.164730 -0.452590 2.363150 
					CHANNELS 3 Zrotation Yrotation Xrotation
					End Site
					{
						OFFSET 0.000000 0.000000 0.000000 
					}
				}
			}
		}
	}
	JOINT Spine
	{
		OFFSET 0.028270 2.035590 -0.193380 
		CHANNELS 3 Zrotation Yrotation Xrotation
		JOINT Spine1
		{
			OFFSET 0.056720 2.048850 -0.042750 
			CHANNELS 3 Zrotation Yrotation Xrotation
			JOINT Neck1
			{
				OFFSET -0.054170 1.746240 0.172020 
				CHANNELS 3 Zrotation Yrotation Xrotation
				JOINT Head
				{
					OFFSET 0.104070 1.761360 -0.123970 
					CHANNELS 3 Zrotation Yrotation Xrotation
					End Site
					{
						OFFSET 0.000000 0.000000 0.000000 
					}
				}
			}
			JOINT LeftArm
			{
				OFFSET 3.362410 1.200890 -0.311210 
				CHANNELS 3 Zrotation Yrotation Xrotation
				JOINT LeftForeArm
				{
					OFFSET 4.983000 -0.000000 -0.000000 
					CHANNELS 3 Zrotation Yrotation Xrotation
					JOINT LeftHand
					{
						OFFSET 3.483560 -0.000000 -0.000000 
						CHANNELS 3 Zrotation Yrotation Xrotation
						JOINT LeftHandIndex1
						{
							OFFSET 0.715260 -0.000000 -0.000000 
							CHANNELS 3 Zrotation Yrotation Xrotation
							End Site
							{
								OFFSET 0.000000 0.000000 0.000000 
							}
						}
					}
				}
			}
			JOINT RightArm
			{
				OFFSET -3.136600 1.374050 -0.404650 
				CHANNELS 3 Zrotation Yrotation Xrotation
				JOINT RightForeArm
				{
					OFFSET -5.241900 -0.000000 -0.000000 
					CHANNELS 3 Zrotation Yrotation Xrotation
					JOINT RightHand
					{
						OFFSET -3.444170 -0.000000 -0.000000 
						CHANNELS 3 Zrotation Yrotation Xrotation
						JOINT RightHandIndex1
						{
							OFFSET -0.622530 -0.000000 -0.000000 
							CHANNELS 3 Zrotation Yrotation Xrotation
							End Site
							{
								OFFSET 0.000000 0.000000 0.000000 
							}
						}
					}
				}
			}
		}
	}
}
MOTION
Frames: 9
Frame Time: 0.041667
14.149523 17.812175 -3.071479 -176.213923 38.356749 -179.141011 -16.043908 -4.291507 -20.567205 -0.879789 5.715417 16.589988 -0.129615 2.601373 9.656363 0.068200 1.684500 4.634400 21.962535 -4.306407 4.080890 -3.841260 -11.349125 36.231167 0.087275 -1.496791 2.655430 -0.858800 5.909700 -16.522500 1.086262 5.024525 1.166485 -2.504497 2.644135 -4.476213 1.959701 1.252995 21.091203 2.763600 -0.025500 14.035400 -83.559239 7.554471 20.766575 14.947982 -21.377936 -3.334236 -1.433392 -2.025307 7.893495 -7.125000 0.000000 0.000000 83.347161 -0.592248 18.013530 -16.167028 23.857029 -3.623504 0.388633 -0.202903 6.370296 7.125000 0.000000 0.000000 
14.203475 17.818982 -3.194999 -176.042083 37.780604 -179.310917 -16.203434 -3.858625 -20.190196 -0.846791 5.753820 16.760913 -0.011711 1.905883 10.312306 0.227200 3.068100 8.468500 21.867298 -4.603756 3.292551 -4.282471 -11.881328 38.181395 -0.000745 -1.176215 4.936398 -0.663200 5.208100 -14.503100 1.134737 4.878778 1.222104 -2.562543 2.565853 -4.447390 2.056025 1.318794 21.102198 2.853000 -0.005700 14.017400 -83.567986 7.469248 20.716815 14.823941 -21.191672 -3.273149 -1.424332 -2.034486 7.969218 -7.125000 0.000000 0.000000 83.441118 -0.919138 17.691329 -16.257954 23.979579 -3.662645 0.393339 -0.189993 6.051867 7.125000 0.000000 0.000000 
14.260130 17.828291 -3.325225 -176.390739 37.370554 -179.809271 -16.763810 -3.643365 -19.584561 -0.821574 5.766490 16.896549 0.102092 0.945285 10.404931 0.236400 3.129000 8.638000 21.206299 -4.825805 2.483630 -4.751144 -12.419175 40.186918 -0.111269 -0.936897 7.485233 -0.442100 4.266300 -11.827100 1.064728 4.762328 1.350675 -2.606101 2.514383 -4.210935 2.208459 1.362637 21.234699 2.954900 0.015400 14.117900 -83.506964 7.241562 20.526211 14.713752 -21.026826 -3.218801 -1.409748 -2.035930 8.264901 -7.125000 0.000000 0.000000 83.668239 -1.067575 17.165918 -16.252432 23.981699 -3.660532 0.393736 -0.203184 6.134574 7.125000 0.000000 0.000000 
14.319788 17.840102 -3.454851 -176.833360 37.186137 179.756615 -17.316994 -3.523908 -18.964545 -0.819088 5.721758 16.854668 0.161812 0.365512 10.413751 0.249700 3.215100 8.878200 20.487136 -4.684816 1.589759 -5.243523 -12.956337 42.227307 -0.232928 -0.927251 10.246767 -0.275400 3.375600 -9.326300 0.994198 4.736756 1.428509 -2.560532 2.507051 -4.029123 2.263116 1.438664 21.231370 3.004500 0.046800 14.104600 -83.419426 7.036487 20.545506 14.569904 -20.818010 -3.149030 -1.435587 -2.036714 8.444036 -7.125000 0.000000 0.000000 83.813117 -1.266977 16.869832 -16.172306 23.879033 -3.625201 0.393701 -0.218447 6.045997 7.125000 0.000000 0.000000 
14.376043 17.850613 -3.579972 -177.261654 37.002549 179.426232 -17.840381 -3.363921 -18.451034 -0.839350 5.616921 16.620940 0.193446 0.163348 10.764905 0.375000 3.933200 10.888900 19.811261 -4.437663 0.514275 -5.757045 -13.484587 44.299555 -0.399467 -0.869082 12.929957 -0.207300 2.931500 -8.088000 0.929602 4.754442 1.445395 -2.510147 2.519352 -3.961372 2.114191 1.517544 21.199142 2.944700 0.066400 14.061100 -83.269550 6.898715 20.894494 14.420709 -20.604222 -3.082221 -1.429027 -2.053966 8.516176 -7.125000 0.000000 0.000000 83.895996 -1.583990 16.789520 -16.157881 23.855607 -3.617896 0.397294 -0.205627 5.672814 7.125000 0.000000 0.000000 
14.429795 17.863025 -3.704393 -177.845749 36.705900 178.907979 -18.559045 -3.194986 -17.767117 -0.866720 5.477009 16.304913 0.227992 -0.126028 11.040273 0.414200 4.131400 11.446600 18.998434 -4.263347 -0.527636 -6.281021 -13.993937 46.368559 -0.600106 -0.670306 15.308979 -0.158900 2.568700 -7.080200 0.842788 4.726191 1.505205 -2.437069 2.513614 -3.884464 1.891096 1.617241 21.187807 2.837000 0.093900 14.062600 -83.136654 6.733910 21.195341 14.330061 -20.472201 -3.044772 -1.414484 -2.034788 8.717919 -7.125000 0.000000 0.000000 83.995358 -1.856200 16.742584 -16.208830 23.914785 -3.637902 0.406362 -0.179712 5.430931 7.125000 0.000000 0.000000 
14.483847 17.873335 -3.826711 -178.421476 36.429673 178.328915 -19.294186 -3.008326 -16.924161 -0.896790 5.319295 15.944155 0.245635 -0.390759 11.047215 0.402300 4.071900 11.279000 18.266698 -3.997258 -1.472910 -6.814688 -14.482301 48.431126 -0.820944 -0.403030 17.512058 -0.125400 2.282900 -6.288200 0.752108 4.714795 1.576287 -2.369270 2.513001 -3.815153 1.930621 1.671671 21.212911 2.871800 0.118300 14.069000 -82.981729 6.611912 21.566328 14.314813 -20.453241 -3.043272 -1.410236 -2.005050 8.902759 -7.125000 0.000000 0.000000 84.078044 -2.090831 16.748085 -16.182793 23.873723 -3.624569 0.414356 -0.170148 5.206475 7.125000 0.000000 0.000000 
14.534897 17.879240 -3.943124 -178.931139 36.165029 177.860104 -19.975580 -2.853953 -16.180889 -0.921318 5.178128 15.623808 0.263615 -0.680733 11.011887 0.398700 4.053900 11.228300 17.636464 -3.685606 -2.476063 -7.361671 -14.950853 50.498440 -1.036696 -0.123638 19.426675 -0.071100 1.720600 -4.734100 0.664087 4.727714 1.611165 -2.339654 2.520316 -3.798847 2.073821 1.672898 21.233521 2.974400 0.118400 14.046900 -82.809479 6.484005 22.159663 14.338446 -20.490850 -3.059133 -1.400599 -2.021193 8.831188 -7.125000 0.000000 0.000000 84.111935 -2.307127 16.864431 -16.120334 23.785478 -3.596060 0.420818 -0.167130 4.929290 7.125000 0.000000 0.000000 
14.581142 17.886548 -4.053832 -179.281872 35.852030 177.501011 -20.512084 -2.702538 -15.578427 -0.925860 5.097902 15.468461 0.294439 -1.060144 11.075444 0.403400 4.077500 11.294800 17.149929 -3.333079 -3.470760 -7.923654 -15.398977 52.554984 -1.169779 -0.101643 20.639651 -0.010800 0.671600 -1.845600 0.613121 4.684780 1.604422 -2.314198 2.498868 -3.904177 2.057094 1.762866 21.284670 3.003800 0.145100 14.029600 -82.683443 6.423264 22.710884 14.398247 -20.579642 -3.091746 -1.390277 -2.030041 8.681487 -7.125000 0.000000 0.000000 84.067711 -2.595148 17.232294 -16.117571 23.779494 -3.596040 0.420585 -0.160808 4.570714 7.125000 0.000000 0.000000 
